<svg version="1.1" xmlns="http://www.w3.org/2000/svg" viewBox="0 0 1080.6987185874525 687.338028754167" width="1080.6987185874525" height="687.338028754167">
  <!-- svg-source:excalidraw -->
  
  <defs>
    <style class="style-fonts">
      @font-face {
        font-family: "Virgil";
        src: url("https://excalidraw.com/Virgil.woff2");
      }
      @font-face {
        font-family: "Cascadia";
        src: url("https://excalidraw.com/Cascadia.woff2");
      }
      @font-face {
        font-family: "Assistant";
        src: url("https://excalidraw.com/Assistant-Regular.woff2");
      }
    </style>
    
  </defs>
  <rect x="0" y="0" width="1080.6987185874525" height="687.338028754167" fill="#ffffff"></rect><g stroke-linecap="round" transform="translate(221.63091925118397 10) rotate(0 178 130.0973046381873)"><path d="M32 0 C139.99 0.77, 248.16 -1.07, 324 0 M32 0 C97.47 1.91, 163 1.69, 324 0 M324 0 C346.78 -0.09, 356.42 10.87, 356 32 M324 0 C343.93 -0.39, 358.18 9.03, 356 32 M356 32 C356.11 73.66, 358.37 119.04, 356 228.19 M356 32 C355.22 96, 354.65 159.29, 356 228.19 M356 228.19 C357.98 251.08, 347.23 258.8, 324 260.19 M356 228.19 C355.22 251.65, 343.25 261.1, 324 260.19 M324 260.19 C251.33 260.12, 174.84 258.91, 32 260.19 M324 260.19 C239.91 258.14, 155.35 258.16, 32 260.19 M32 260.19 C11.65 258.99, 1.99 250.13, 0 228.19 M32 260.19 C9.11 259.64, 0.68 250.86, 0 228.19 M0 228.19 C-0.38 175.76, -1.04 119.34, 0 32 M0 228.19 C1.29 157.37, 1.6 85.8, 0 32 M0 32 C1.21 11.53, 10.29 0.53, 32 0 M0 32 C-2.03 10.4, 10.12 -0.94, 32 0" stroke="#1e1e1e" stroke-width="1" fill="none"></path></g><g transform="translate(238.9282365088256 29.156751089221558) rotate(0 41.01562500000003 12)"><text x="0" y="19.3125" font-family="Cascadia, Segoe UI Emoji" font-size="20px" fill="#1e1e1e" text-anchor="start" style="white-space: pre;" direction="ltr" dominant-baseline="alphabetic">Account</text></g><g stroke-linecap="round" transform="translate(235.25248683663062 159.57850970864627) rotate(0 164.8000030517578 48.40001678466797)"><path d="M24.2 0 C122.41 -2.68, 220.85 0.12, 305.4 0 C324.46 -2.8, 329.57 9.26, 329.6 24.2 C332.21 32.45, 331.41 44.23, 329.6 72.6 C327.65 86.7, 321.87 94.57, 305.4 96.8 C220.21 99.11, 136.37 102.95, 24.2 96.8 C4.83 94.32, -0.59 87.15, 0 72.6 C-3.33 62.64, -1.02 53.12, 0 24.2 C-2.83 7.4, 10.87 0.02, 24.2 0" stroke="none" stroke-width="0" fill="#ebfbee"></path><path d="M24.2 0 C119.87 -0.3, 215.56 0.42, 305.4 0 M24.2 0 C101.28 1.87, 177.66 1.85, 305.4 0 M305.4 0 C322.56 0.32, 329.94 9.21, 329.6 24.2 M305.4 0 C322.55 1.07, 327.52 6.16, 329.6 24.2 M329.6 24.2 C330.31 41.41, 330.74 56.72, 329.6 72.6 M329.6 24.2 C328.52 36.5, 328.41 50.74, 329.6 72.6 M329.6 72.6 C329.74 89.41, 322.44 97.18, 305.4 96.8 M329.6 72.6 C328.39 87.9, 321.26 95.97, 305.4 96.8 M305.4 96.8 C234.43 96.89, 161.96 97.62, 24.2 96.8 M305.4 96.8 C243.86 95.8, 183.24 97, 24.2 96.8 M24.2 96.8 C8.87 98.1, -1.02 87.69, 0 72.6 M24.2 96.8 C8.71 94.93, -1.51 86.46, 0 72.6 M0 72.6 C1.51 58.71, 1.65 45.85, 0 24.2 M0 72.6 C0.48 58.06, -0.04 42.94, 0 24.2 M0 24.2 C-0.91 9.06, 8.34 -0.45, 24.2 0 M0 24.2 C1.84 9.44, 7.58 0.34, 24.2 0" stroke="#1e1e1e" stroke-width="1" fill="none"></path></g><g transform="translate(258.4525295612399 170.2271221486768) rotate(0 99.609375 12)"><text x="0" y="19.3125" font-family="Cascadia, Segoe UI Emoji" font-size="20px" fill="#1e1e1e" text-anchor="start" style="white-space: pre;" direction="ltr" dominant-baseline="alphabetic">prototype members</text></g><g transform="translate(253.90120691303082 75.30791126556613) rotate(0 82.03125 12)"><text x="0" y="19.3125" font-family="Cascadia, Segoe UI Emoji" font-size="20px" fill="#1e1e1e" text-anchor="start" style="white-space: pre;" direction="ltr" dominant-baseline="alphabetic">static members</text></g><g stroke-linecap="round" transform="translate(729.6311023566527 73.22163472411847) rotate(0 164.80001831054688 85.69732392646651)"><path d="M32 0 C88.22 0.09, 141.91 0.73, 297.6 0 M32 0 C113.45 0.84, 193.26 1.1, 297.6 0 M297.6 0 C319.87 -0.93, 330.9 10.71, 329.6 32 M297.6 0 C317.98 0.96, 329.76 11.24, 329.6 32 M329.6 32 C330.29 56.67, 328.56 81.81, 329.6 139.39 M329.6 32 C328.44 58.16, 329.25 84.61, 329.6 139.39 M329.6 139.39 C328.13 162.56, 317.46 170.57, 297.6 171.39 M329.6 139.39 C328.51 160.69, 317.89 169.29, 297.6 171.39 M297.6 171.39 C239.48 170.19, 179.33 169.68, 32 171.39 M297.6 171.39 C224.59 172.69, 152.37 173.92, 32 171.39 M32 171.39 C12.38 169.97, 0.18 162.09, 0 139.39 M32 171.39 C10.59 173.26, -1.57 160.63, 0 139.39 M0 139.39 C-1.99 102.64, -1.39 66.03, 0 32 M0 139.39 C0.19 114.3, -0.96 87.53, 0 32 M0 32 C0.39 11.5, 11.83 1.2, 32 0 M0 32 C-2.16 8.37, 9.43 0.11, 32 0" stroke="#1e1e1e" stroke-width="1" fill="none"></path></g><g stroke-linecap="round" transform="translate(748.0309436652465 146.02162251708722) rotate(0 150.4000244140625 41.28650392507254)"><path d="M20.64 0 C91.82 -0.66, 166.01 1.3, 280.16 0 C293.25 -1.72, 298.77 9.55, 300.8 20.64 C303.73 34.51, 301.65 53.59, 300.8 61.93 C304.23 73.53, 295.89 84.16, 280.16 82.57 C224.54 81.83, 168.92 78.86, 20.64 82.57 C9.72 83.72, 1.15 79.07, 0 61.93 C-0.65 48.99, 2.48 34.02, 0 20.64 C0.47 8.18, 5.63 -1.18, 20.64 0" stroke="none" stroke-width="0" fill="#ebfbee"></path><path d="M20.64 0 C90.15 -1.07, 157.02 0.6, 280.16 0 M280.16 0 C295.36 0.47, 302.61 5.56, 300.8 20.64 M300.8 20.64 C301.2 37.59, 298.84 51.42, 300.8 61.93 M300.8 61.93 C299.52 74.82, 292.83 84.17, 280.16 82.57 M280.16 82.57 C188.37 83.45, 98.69 84.17, 20.64 82.57 M20.64 82.57 C8.17 83.01, 1.45 74.09, 0 61.93 M0 61.93 C0.93 45.38, 0.18 31.63, 0 20.64 M0 20.64 C-0.61 5.89, 5.99 1.73, 20.64 0" stroke="#1e1e1e" stroke-width="1.5" fill="none" stroke-dasharray="8 9"></path></g><g transform="translate(763.2309558722777 148.96213070210888) rotate(0 52.734375 12)"><text x="0" y="19.3125" font-family="Cascadia, Segoe UI Emoji" font-size="20px" fill="#1e1e1e" text-anchor="start" style="white-space: pre;" direction="ltr" dominant-baseline="alphabetic">__proto__</text></g><g transform="translate(261.00928980573497 210.31901096530606) rotate(0 42.1875 19.19999999999999)"><text x="0" y="15.45" font-family="Cascadia, Segoe UI Emoji" font-size="16px" fill="#1e1e1e" text-anchor="start" style="white-space: pre;" direction="ltr" dominant-baseline="alphabetic">balance</text><text x="0" y="34.65" font-family="Cascadia, Segoe UI Emoji" font-size="16px" fill="#1e1e1e" text-anchor="start" style="white-space: pre;" direction="ltr" dominant-baseline="alphabetic">deposit()</text></g><g transform="translate(755.630919251184 94.82160420654034) rotate(0 11.71875 12)"><text x="0" y="19.3125" font-family="Cascadia, Segoe UI Emoji" font-size="20px" fill="#1e1e1e" text-anchor="start" style="white-space: pre;" direction="ltr" dominant-baseline="alphabetic">s1</text></g><g stroke-linecap="round"><g transform="translate(747.0309436652465 202.22977068163385) rotate(0 -91.93245901453952 -25.592354187864146)"><path d="M1.09 1.2 C-8.88 -7.62, -29.33 -48.48, -60.17 -51.79 C-91.02 -55.09, -163.18 -24.31, -183.98 -18.63 M0.21 0.78 C-9.83 -7.37, -29.85 -47.48, -60.69 -50.57 C-91.52 -53.65, -164.03 -23.41, -184.81 -17.74" stroke="#1e1e1e" stroke-width="1" fill="none"></path></g><g transform="translate(747.0309436652465 202.22977068163385) rotate(0 -91.93245901453952 -25.592354187864146)"><path d="M-165.28 -33.35 C-168.48 -27.51, -176.83 -24.81, -184.81 -17.74 M-165.28 -33.35 C-169.71 -28.97, -174.39 -26.95, -184.81 -17.74" stroke="#1e1e1e" stroke-width="1" fill="none"></path></g><g transform="translate(747.0309436652465 202.22977068163385) rotate(0 -91.93245901453952 -25.592354187864146)"><path d="M-159.81 -17.15 C-164.67 -15.7, -174.51 -17.43, -184.81 -17.74 M-159.81 -17.15 C-165.36 -16.52, -171.3 -18.26, -184.81 -17.74" stroke="#1e1e1e" stroke-width="1" fill="none"></path></g></g><mask></mask><g stroke-linecap="round" transform="translate(220.45021151040032 357.1002041363499) rotate(0 178 160.11891230890853)"><path d="M32 0 C101.38 -1.97, 172.73 -1.46, 324 0 M32 0 C126.35 -1.76, 220.24 -1.96, 324 0 M324 0 C347.16 0.8, 356.12 11.11, 356 32 M324 0 C346.8 -0.17, 354.19 9.09, 356 32 M356 32 C356.78 130.06, 358.28 230.59, 356 288.24 M356 32 C355.67 103.56, 354.63 175.52, 356 288.24 M356 288.24 C354.09 309.41, 345.88 321.44, 324 320.24 M356 288.24 C357.09 311.54, 346.52 319.77, 324 320.24 M324 320.24 C227.84 320.04, 130.99 319.97, 32 320.24 M324 320.24 C217.54 321.29, 110.41 320.53, 32 320.24 M32 320.24 C8.85 320.52, -1.37 308.24, 0 288.24 M32 320.24 C9.56 319.13, -0.63 309.04, 0 288.24 M0 288.24 C0.72 197.49, -2.46 106.88, 0 32 M0 288.24 C-2.38 209.51, -0.96 131.58, 0 32 M0 32 C-1.34 11.85, 8.8 0.12, 32 0 M0 32 C-1.02 10.39, 10.22 1.76, 32 0" stroke="#1e1e1e" stroke-width="1" fill="none"></path></g><g transform="translate(239.3907493881539 372.97041995807473) rotate(0 82.03124999999997 12)"><text x="0" y="19.3125" font-family="Cascadia, Segoe UI Emoji" font-size="20px" fill="#1e1e1e" text-anchor="start" style="white-space: pre;" direction="ltr" dominant-baseline="alphabetic">SpecialAccount</text></g><g stroke-linecap="round" transform="translate(234.09340326262668 510.6354217971852) rotate(0 164.8000030517578 75.60002899169922)"><path d="M32 0 C93.75 1.41, 156.27 1.62, 297.6 0 M32 0 C121.42 0.17, 209.45 0.03, 297.6 0 M297.6 0 C320.21 -0.15, 328.03 9.3, 329.6 32 M297.6 0 C320.98 1.16, 331.57 10.28, 329.6 32 M329.6 32 C329.87 48.81, 329.02 68.54, 329.6 119.2 M329.6 32 C328.08 56.22, 329.31 81.21, 329.6 119.2 M329.6 119.2 C330.55 142.25, 319.96 150.8, 297.6 151.2 M329.6 119.2 C330.33 142.42, 317.66 152.39, 297.6 151.2 M297.6 151.2 C200.97 151.5, 102.88 153.89, 32 151.2 M297.6 151.2 C211.67 149.63, 126.63 148.99, 32 151.2 M32 151.2 C9.71 150.23, -0.55 140.07, 0 119.2 M32 151.2 C11.87 152.19, 1.54 142.82, 0 119.2 M0 119.2 C0.96 97.38, 1.84 70.56, 0 32 M0 119.2 C-1.42 97.61, -1.69 74.89, 0 32 M0 32 C-0.88 10.43, 10.28 1.53, 32 0 M0 32 C-0.2 12.14, 9.95 -0.98, 32 0" stroke="#1e1e1e" stroke-width="1" fill="none"></path></g><g transform="translate(258.09349481536105 521.4354248489431) rotate(0 52.734375 12)"><text x="0" y="19.3125" font-family="Cascadia, Segoe UI Emoji" font-size="20px" fill="#1e1e1e" text-anchor="start" style="white-space: pre;" direction="ltr" dominant-baseline="alphabetic">prototype</text></g><g transform="translate(251.1421155858186 417.45660590210497) rotate(0 82.03125 12)"><text x="0" y="19.3125" font-family="Cascadia, Segoe UI Emoji" font-size="20px" fill="#1e1e1e" text-anchor="start" style="white-space: pre;" direction="ltr" dominant-baseline="alphabetic">static members</text></g><g stroke-linecap="round" transform="translate(258.06869241667954 565.407816168218) rotate(0 141.6000061035156 42.40003967285156)"><path d="M21.2 0 C71.62 4.91, 125.49 3.91, 262 0 C272.54 -1.02, 282.33 7.56, 283.2 21.2 C284.47 34.89, 280.91 55.76, 283.2 63.6 C282.72 80.57, 277.37 83.71, 262 84.8 C199.29 82.5, 143.45 82.3, 21.2 84.8 C6.14 86.35, -1.74 75.26, 0 63.6 C-1.56 53.84, -2.35 46.74, 0 21.2 C0.5 6.2, 7.53 -1.95, 21.2 0" stroke="none" stroke-width="0" fill="#ebfbee"></path><path d="M21.2 0 C97.59 -0.7, 176.49 -1.54, 262 0 M262 0 C274.45 1.93, 281.48 7.09, 283.2 21.2 M283.2 21.2 C284.45 32.13, 281.03 46.15, 283.2 63.6 M283.2 63.6 C285.19 76.02, 277.64 86.32, 262 84.8 M262 84.8 C179.32 83.56, 92.1 84.81, 21.2 84.8 M21.2 84.8 C8.01 85.65, -0.9 79.05, 0 63.6 M0 63.6 C-0.6 55.71, 1.84 43.23, 0 21.2 M0 21.2 C-1.85 6.06, 5.8 1.46, 21.2 0" stroke="#1e1e1e" stroke-width="1.5" fill="none" stroke-dasharray="8 9"></path></g><g transform="translate(275.26867410613266 574.6079199279836) rotate(0 52.73437500000003 12)"><text x="0" y="19.3125" font-family="Cascadia, Segoe UI Emoji" font-size="20px" fill="#1e1e1e" text-anchor="start" style="white-space: pre;" direction="ltr" dominant-baseline="alphabetic">__proto__</text></g><g mask="url(#mask-MywKNpplWEt_KkfVassCT)" stroke-linecap="round"><g transform="translate(265.15134427096297 568.4584074826373) rotate(0 -98.48192213548148 -186.51537199225027)"><path d="M0.81 0.29 C-31.92 -36.76, -192.04 -159.6, -197.24 -221.65 C-202.44 -283.7, -58.42 -346.94, -30.37 -372.01 M-0.22 -0.6 C-33.05 -38.07, -193.71 -161.23, -198.33 -223.44 C-202.96 -285.64, -56.28 -348.7, -27.97 -373.82" stroke="#1e1e1e" stroke-width="1" fill="none"></path></g><g transform="translate(265.15134427096297 568.4584074826373) rotate(0 -98.48192213548148 -186.51537199225027)"><path d="M-43.23 -354.02 C-39.37 -359.1, -35.3 -364.72, -27.97 -373.82 M-43.23 -354.02 C-37.06 -362.01, -31.92 -369.87, -27.97 -373.82" stroke="#1e1e1e" stroke-width="1" fill="none"></path></g><g transform="translate(265.15134427096297 568.4584074826373) rotate(0 -98.48192213548148 -186.51537199225027)"><path d="M-52.38 -368.46 C-46.35 -370.31, -40.18 -372.63, -27.97 -373.82 M-52.38 -368.46 C-42.63 -370.96, -33.96 -373.26, -27.97 -373.82" stroke="#1e1e1e" stroke-width="1" fill="none"></path></g></g><mask id="mask-MywKNpplWEt_KkfVassCT"><rect x="0" y="0" fill="#fff" width="562.1151885419259" height="1041.4891514671378"></rect><rect x="10" y="336.5646241102195" fill="#000" width="116.375" height="19.2" opacity="1"></rect></mask><g transform="translate(10 336.5646241102193) rotate(0 156.3395093651497 45.13141302922139)"><text x="58.1875" y="15.45" font-family="Cascadia, Segoe UI Emoji" font-size="16px" fill="#1e1e1e" text-anchor="middle" style="white-space: pre;" direction="ltr" dominant-baseline="alphabetic">prototype成员</text></g><g stroke-linecap="round" transform="translate(741.0986819663588 435.8452902344159) rotate(0 164.80001831054688 98.84332395554446)"><path d="M32 0 C116.86 -0.48, 202.83 2.41, 297.6 0 M32 0 C92.88 -0.03, 153.16 -1.19, 297.6 0 M297.6 0 C319.18 0.45, 331 12.16, 329.6 32 M297.6 0 C318.94 1.39, 327.81 12.72, 329.6 32 M329.6 32 C329.53 62.17, 330.47 93.52, 329.6 165.69 M329.6 32 C329.39 65.68, 329.47 96.69, 329.6 165.69 M329.6 165.69 C330.63 185.75, 319.11 196.26, 297.6 197.69 M329.6 165.69 C327.68 184.94, 317.57 197.8, 297.6 197.69 M297.6 197.69 C239.2 196.17, 178.02 198.01, 32 197.69 M297.6 197.69 C231.53 198.03, 166.21 199.09, 32 197.69 M32 197.69 C10.22 196.76, 1.13 186.89, 0 165.69 M32 197.69 C8.56 199.68, -2.04 188.41, 0 165.69 M0 165.69 C0.92 135.56, -1.49 106.57, 0 32 M0 165.69 C0.57 116.32, 0.07 68.18, 0 32 M0 32 C-1.52 9.12, 9.65 -0.65, 32 0 M0 32 C0.83 9.92, 11.62 0.85, 32 0" stroke="#1e1e1e" stroke-width="1" fill="none"></path></g><g stroke-linecap="round" transform="translate(754.5687987297681 520.9696520751945) rotate(0 150.4000244140625 51.55678951289377)"><path d="M25.78 0 C89.94 3.82, 158.33 1.04, 275.02 0 C293.25 -2.2, 299.58 7.65, 300.8 25.78 C302.63 46.16, 297.29 70.12, 300.8 77.34 C297.61 96.7, 289.21 101.78, 275.02 103.11 C212.73 99.31, 158.23 100.47, 25.78 103.11 C9.97 104.28, -1.58 93.88, 0 77.34 C-1.13 58.93, 2 41.72, 0 25.78 C1.49 9.93, 8.29 -1.34, 25.78 0" stroke="none" stroke-width="0" fill="#ebfbee"></path><path d="M25.78 0 C89.55 3.36, 151.07 2.77, 275.02 0 M275.02 0 C292.96 1.71, 302.72 10.5, 300.8 25.78 M300.8 25.78 C302.26 40.15, 300.87 52.74, 300.8 77.34 M300.8 77.34 C299.24 96.31, 290.87 104.79, 275.02 103.11 M275.02 103.11 C199.95 101.42, 124.39 101.17, 25.78 103.11 M25.78 103.11 C8.31 104.21, 1.83 95.77, 0 77.34 M0 77.34 C-0.08 64.86, -1.93 53.42, 0 25.78 M0 25.78 C-1.19 8.69, 7.04 0.16, 25.78 0" stroke="#1e1e1e" stroke-width="1.5" fill="none" stroke-dasharray="8 9"></path></g><g transform="translate(771.4120942417596 524.7316765429994) rotate(0 52.734375 12)"><text x="0" y="19.3125" font-family="Cascadia, Segoe UI Emoji" font-size="20px" fill="#1e1e1e" text-anchor="start" style="white-space: pre;" direction="ltr" dominant-baseline="alphabetic">__proto__</text></g><g transform="translate(767.09849886089 457.4452597168378) rotate(0 11.71875 12)"><text x="0" y="19.3125" font-family="Cascadia, Segoe UI Emoji" font-size="20px" fill="#1e1e1e" text-anchor="start" style="white-space: pre;" direction="ltr" dominant-baseline="alphabetic">s2</text></g><g stroke-linecap="round"><g transform="translate(753.5687987297681 586.8149323925823) rotate(0 -96.49175179937725 -35.752296258879085)"><path d="M1.02 -0.9 C-8.15 -12.65, -21.87 -60.55, -54.33 -70.75 C-86.79 -80.96, -170.49 -63.55, -193.73 -62.11 M0.1 1.25 C-8.76 -10.82, -20.21 -62.14, -52.1 -72.48 C-83.99 -82.82, -167.58 -62.71, -191.23 -60.79" stroke="#1e1e1e" stroke-width="1" fill="none"></path></g><g transform="translate(753.5687987297681 586.8149323925823) rotate(0 -96.49175179937725 -35.752296258879085)"><path d="M-169.32 -72.83 C-178.67 -69.88, -183.75 -65.29, -191.23 -60.79 M-169.32 -72.83 C-175.65 -69.7, -181.71 -65.54, -191.23 -60.79" stroke="#1e1e1e" stroke-width="1" fill="none"></path></g><g transform="translate(753.5687987297681 586.8149323925823) rotate(0 -96.49175179937725 -35.752296258879085)"><path d="M-166.71 -55.93 C-176.96 -59, -182.97 -60.44, -191.23 -60.79 M-166.71 -55.93 C-173.7 -57.87, -180.55 -58.77, -191.23 -60.79" stroke="#1e1e1e" stroke-width="1" fill="none"></path></g></g><mask></mask><g transform="translate(767.8361957376407 182.35452902264984) rotate(0 42.18749999999994 19.19999999999999)"><text x="0" y="15.45" font-family="Cascadia, Segoe UI Emoji" font-size="16px" fill="#1e1e1e" text-anchor="start" style="white-space: pre;" direction="ltr" dominant-baseline="alphabetic">balance</text><text x="0" y="34.65" font-family="Cascadia, Segoe UI Emoji" font-size="16px" fill="#1e1e1e" text-anchor="start" style="white-space: pre;" direction="ltr" dominant-baseline="alphabetic">deposit()</text></g><g transform="translate(256.86610770910244 108.09494584468843) rotate(0 37.49999999999997 19.19999999999999)"><text x="0" y="15.45" font-family="Cascadia, Segoe UI Emoji" font-size="16px" fill="#1e1e1e" text-anchor="start" style="white-space: pre;" direction="ltr" dominant-baseline="alphabetic">new()</text><text x="0" y="34.65" font-family="Cascadia, Segoe UI Emoji" font-size="16px" fill="#1e1e1e" text-anchor="start" style="white-space: pre;" direction="ltr" dominant-baseline="alphabetic">extend()</text></g><g transform="translate(254.901302111449 453.2720594529016) rotate(0 37.5 19.19999999999999)"><text x="0" y="15.45" font-family="Cascadia, Segoe UI Emoji" font-size="16px" fill="#1e1e1e" text-anchor="start" style="white-space: pre;" direction="ltr" dominant-baseline="alphabetic">new()</text><text x="0" y="34.65" font-family="Cascadia, Segoe UI Emoji" font-size="16px" fill="#1e1e1e" text-anchor="start" style="white-space: pre;" direction="ltr" dominant-baseline="alphabetic">extend()</text></g><g transform="translate(277.3273497948122 606.9153500606471) rotate(0 42.1875 19.19999999999999)"><text x="0" y="15.45" font-family="Cascadia, Segoe UI Emoji" font-size="16px" fill="#1e1e1e" text-anchor="start" style="white-space: pre;" direction="ltr" dominant-baseline="alphabetic">balance</text><text x="0" y="34.65" font-family="Cascadia, Segoe UI Emoji" font-size="16px" fill="#1e1e1e" text-anchor="start" style="white-space: pre;" direction="ltr" dominant-baseline="alphabetic">deposit()</text></g><g transform="translate(776.0524242078981 574.8721091745235) rotate(0 42.18750000000006 19.19999999999999)"><text x="0" y="15.45" font-family="Cascadia, Segoe UI Emoji" font-size="16px" fill="#1e1e1e" text-anchor="start" style="white-space: pre;" direction="ltr" dominant-baseline="alphabetic">balance</text><text x="0" y="34.65" font-family="Cascadia, Segoe UI Emoji" font-size="16px" fill="#1e1e1e" text-anchor="start" style="white-space: pre;" direction="ltr" dominant-baseline="alphabetic">deposit()</text></g><g mask="url(#mask-UcNT6hPMl_Mi0ASQB_kRf)" stroke-linecap="round"><g transform="translate(322.60303707682965 346.82596211539095) rotate(0 0.4108051550280152 -34.50816584356431)"><path d="M0.58 0.88 C0.54 -10.68, 0.35 -57.97, 0.54 -69.42 M-0.58 0.29 C-0.87 -11.09, -0.88 -56.46, -0.55 -68.1" stroke="#1e1e1e" stroke-width="1" fill="none"></path></g><g transform="translate(322.60303707682965 346.82596211539095) rotate(0 0.4108051550280152 -34.50816584356431)"><path d="M7.72 -44.51 C6.18 -53.56, 1.01 -60.25, -0.55 -68.1 M7.72 -44.51 C4.08 -53.55, 1.01 -63, -0.55 -68.1" stroke="#1e1e1e" stroke-width="1" fill="none"></path></g><g transform="translate(322.60303707682965 346.82596211539095) rotate(0 0.4108051550280152 -34.50816584356431)"><path d="M-9.38 -44.71 C-4.67 -53.77, -3.58 -60.38, -0.55 -68.1 M-9.38 -44.71 C-6.22 -53.62, -2.49 -62.99, -0.55 -68.1" stroke="#1e1e1e" stroke-width="1" fill="none"></path></g></g><mask id="mask-UcNT6hPMl_Mi0ASQB_kRf"><rect x="0" y="0" fill="#fff" width="423.4246473868857" height="515.8422938025196"></rect><rect x="278.88884223185767" y="302.7177962718266" fill="#000" width="88.25" height="19.2" opacity="1"></rect></mask><g transform="translate(278.88884223185767 302.71779627182656) rotate(0 43.604738866692685 9.834482499584567)"><text x="44.125" y="15.45" font-family="Cascadia, Segoe UI Emoji" font-size="16px" fill="#1e1e1e" text-anchor="middle" style="white-space: pre;" direction="ltr" dominant-baseline="alphabetic">static成员</text></g></svg>